<mxfile host="app.diagrams.net" modified="2023-05-21T13:01:00.088Z" agent="Mozilla/5.0 (Windows NT 10.0; Win64; x64) AppleWebKit/537.36 (KHTML, like Gecko) Chrome/113.0.0.0 Safari/537.36" etag="dpl1KQKpHqjqs5P38Ny9" version="21.3.2" type="device">
  <diagram name="Page-1" id="e7e014a7-5840-1c2e-5031-d8a46d1fe8dd">
    <mxGraphModel dx="712" dy="786" grid="1" gridSize="10" guides="1" tooltips="1" connect="1" arrows="1" fold="1" page="1" pageScale="1" pageWidth="1169" pageHeight="826" background="none" math="0" shadow="0">
      <root>
        <mxCell id="0" />
        <mxCell id="1" parent="0" />
        <mxCell id="n-K4rKe29Tg8tYZz-lkn-41" value="" style="html=1;verticalAlign=bottom;startArrow=circle;startFill=1;endArrow=open;startSize=6;endSize=8;edgeStyle=elbowEdgeStyle;elbow=vertical;curved=0;rounded=0;" parent="1" edge="1">
          <mxGeometry width="80" relative="1" as="geometry">
            <mxPoint x="300" y="220" as="sourcePoint" />
            <mxPoint x="300" y="280" as="targetPoint" />
          </mxGeometry>
        </mxCell>
        <mxCell id="n-K4rKe29Tg8tYZz-lkn-42" value="Estado 1" style="rounded=1;whiteSpace=wrap;html=1;" parent="1" vertex="1">
          <mxGeometry x="250" y="280" width="100" height="50" as="geometry" />
        </mxCell>
        <mxCell id="n-K4rKe29Tg8tYZz-lkn-43" value="" style="html=1;verticalAlign=bottom;startArrow=circle;startFill=1;endArrow=open;startSize=6;endSize=8;edgeStyle=elbowEdgeStyle;elbow=vertical;curved=0;rounded=0;" parent="1" edge="1">
          <mxGeometry width="80" relative="1" as="geometry">
            <mxPoint x="529.5" y="250" as="sourcePoint" />
            <mxPoint x="530" y="310" as="targetPoint" />
            <Array as="points">
              <mxPoint x="519.5" y="280" />
            </Array>
          </mxGeometry>
        </mxCell>
        <mxCell id="n-K4rKe29Tg8tYZz-lkn-44" value="Monitorea humedad del suelo" style="rounded=1;whiteSpace=wrap;html=1;" parent="1" vertex="1">
          <mxGeometry x="480" y="320" width="100" height="50" as="geometry" />
        </mxCell>
        <mxCell id="n-K4rKe29Tg8tYZz-lkn-45" value="" style="endArrow=none;dashed=1;html=1;rounded=0;" parent="1" edge="1">
          <mxGeometry width="50" height="50" relative="1" as="geometry">
            <mxPoint x="310" y="350" as="sourcePoint" />
            <mxPoint x="470" y="350" as="targetPoint" />
          </mxGeometry>
        </mxCell>
        <mxCell id="n-K4rKe29Tg8tYZz-lkn-46" value="" style="endArrow=none;dashed=1;html=1;rounded=0;" parent="1" edge="1">
          <mxGeometry width="50" height="50" relative="1" as="geometry">
            <mxPoint x="590" y="344.5" as="sourcePoint" />
            <mxPoint x="720" y="345" as="targetPoint" />
          </mxGeometry>
        </mxCell>
        <mxCell id="n-K4rKe29Tg8tYZz-lkn-48" value="Sensor de Suelo" style="text;html=1;align=center;verticalAlign=middle;resizable=0;points=[];autosize=1;strokeColor=none;fillColor=none;" parent="1" vertex="1">
          <mxGeometry x="360" y="200" width="110" height="30" as="geometry" />
        </mxCell>
        <mxCell id="n-K4rKe29Tg8tYZz-lkn-50" value="" style="endArrow=open;endFill=1;endSize=12;html=1;rounded=0;exitX=0.5;exitY=1;exitDx=0;exitDy=0;" parent="1" source="n-K4rKe29Tg8tYZz-lkn-42" edge="1">
          <mxGeometry width="160" relative="1" as="geometry">
            <mxPoint x="430" y="470" as="sourcePoint" />
            <mxPoint x="300" y="380" as="targetPoint" />
          </mxGeometry>
        </mxCell>
        <mxCell id="n-K4rKe29Tg8tYZz-lkn-51" value="" style="endArrow=none;dashed=1;html=1;rounded=0;" parent="1" edge="1">
          <mxGeometry width="50" height="50" relative="1" as="geometry">
            <mxPoint x="160" y="350" as="sourcePoint" />
            <mxPoint x="290" y="350" as="targetPoint" />
          </mxGeometry>
        </mxCell>
        <mxCell id="n-K4rKe29Tg8tYZz-lkn-53" value="Estado 2" style="rounded=1;whiteSpace=wrap;html=1;" parent="1" vertex="1">
          <mxGeometry x="250" y="390" width="100" height="50" as="geometry" />
        </mxCell>
        <mxCell id="n-K4rKe29Tg8tYZz-lkn-55" value="Se activa la alerta" style="rounded=1;whiteSpace=wrap;html=1;" parent="1" vertex="1">
          <mxGeometry x="480" y="430" width="100" height="50" as="geometry" />
        </mxCell>
        <mxCell id="n-K4rKe29Tg8tYZz-lkn-56" value="" style="endArrow=none;dashed=1;html=1;rounded=0;" parent="1" edge="1">
          <mxGeometry width="50" height="50" relative="1" as="geometry">
            <mxPoint x="310" y="460" as="sourcePoint" />
            <mxPoint x="470" y="460" as="targetPoint" />
          </mxGeometry>
        </mxCell>
        <mxCell id="n-K4rKe29Tg8tYZz-lkn-57" value="" style="endArrow=none;dashed=1;html=1;rounded=0;" parent="1" edge="1">
          <mxGeometry width="50" height="50" relative="1" as="geometry">
            <mxPoint x="590" y="454.5" as="sourcePoint" />
            <mxPoint x="720" y="455" as="targetPoint" />
          </mxGeometry>
        </mxCell>
        <mxCell id="n-K4rKe29Tg8tYZz-lkn-58" value="" style="endArrow=open;endFill=1;endSize=12;html=1;rounded=0;exitX=0.5;exitY=1;exitDx=0;exitDy=0;" parent="1" source="n-K4rKe29Tg8tYZz-lkn-53" edge="1">
          <mxGeometry width="160" relative="1" as="geometry">
            <mxPoint x="430" y="580" as="sourcePoint" />
            <mxPoint x="300" y="490" as="targetPoint" />
          </mxGeometry>
        </mxCell>
        <mxCell id="n-K4rKe29Tg8tYZz-lkn-59" value="" style="endArrow=none;dashed=1;html=1;rounded=0;" parent="1" edge="1">
          <mxGeometry width="50" height="50" relative="1" as="geometry">
            <mxPoint x="160" y="460" as="sourcePoint" />
            <mxPoint x="290" y="460" as="targetPoint" />
          </mxGeometry>
        </mxCell>
        <mxCell id="n-K4rKe29Tg8tYZz-lkn-60" value="" style="endArrow=open;endFill=1;endSize=12;html=1;rounded=0;exitX=0.5;exitY=1;exitDx=0;exitDy=0;" parent="1" edge="1">
          <mxGeometry width="160" relative="1" as="geometry">
            <mxPoint x="529.5" y="370" as="sourcePoint" />
            <mxPoint x="529.5" y="420" as="targetPoint" />
          </mxGeometry>
        </mxCell>
        <mxCell id="n-K4rKe29Tg8tYZz-lkn-61" value="" style="endArrow=open;endFill=1;endSize=12;html=1;rounded=0;exitX=0.5;exitY=1;exitDx=0;exitDy=0;" parent="1" edge="1">
          <mxGeometry width="160" relative="1" as="geometry">
            <mxPoint x="529.5" y="480" as="sourcePoint" />
            <mxPoint x="529.5" y="530" as="targetPoint" />
          </mxGeometry>
        </mxCell>
        <mxCell id="n-K4rKe29Tg8tYZz-lkn-62" value="Estado 3" style="rounded=1;whiteSpace=wrap;html=1;" parent="1" vertex="1">
          <mxGeometry x="250" y="490" width="100" height="50" as="geometry" />
        </mxCell>
        <mxCell id="n-K4rKe29Tg8tYZz-lkn-63" value="Se desactiva la alerta&amp;nbsp;" style="rounded=1;whiteSpace=wrap;html=1;" parent="1" vertex="1">
          <mxGeometry x="480" y="530" width="100" height="50" as="geometry" />
        </mxCell>
        <mxCell id="n-K4rKe29Tg8tYZz-lkn-64" value="" style="endArrow=none;dashed=1;html=1;rounded=0;" parent="1" edge="1">
          <mxGeometry width="50" height="50" relative="1" as="geometry">
            <mxPoint x="310" y="560" as="sourcePoint" />
            <mxPoint x="470" y="560" as="targetPoint" />
          </mxGeometry>
        </mxCell>
        <mxCell id="n-K4rKe29Tg8tYZz-lkn-65" value="" style="endArrow=none;dashed=1;html=1;rounded=0;" parent="1" edge="1">
          <mxGeometry width="50" height="50" relative="1" as="geometry">
            <mxPoint x="590" y="554.5" as="sourcePoint" />
            <mxPoint x="720" y="555" as="targetPoint" />
          </mxGeometry>
        </mxCell>
        <mxCell id="n-K4rKe29Tg8tYZz-lkn-66" value="" style="endArrow=open;endFill=1;endSize=12;html=1;rounded=0;exitX=0.5;exitY=1;exitDx=0;exitDy=0;" parent="1" source="n-K4rKe29Tg8tYZz-lkn-62" edge="1">
          <mxGeometry width="160" relative="1" as="geometry">
            <mxPoint x="430" y="680" as="sourcePoint" />
            <mxPoint x="300" y="590" as="targetPoint" />
          </mxGeometry>
        </mxCell>
        <mxCell id="n-K4rKe29Tg8tYZz-lkn-67" value="" style="endArrow=none;dashed=1;html=1;rounded=0;" parent="1" edge="1">
          <mxGeometry width="50" height="50" relative="1" as="geometry">
            <mxPoint x="160" y="560" as="sourcePoint" />
            <mxPoint x="290" y="560" as="targetPoint" />
          </mxGeometry>
        </mxCell>
        <mxCell id="n-K4rKe29Tg8tYZz-lkn-68" value="" style="endArrow=open;endFill=1;endSize=12;html=1;rounded=0;exitX=0.5;exitY=1;exitDx=0;exitDy=0;" parent="1" edge="1">
          <mxGeometry width="160" relative="1" as="geometry">
            <mxPoint x="529.5" y="580" as="sourcePoint" />
            <mxPoint x="529.5" y="630" as="targetPoint" />
          </mxGeometry>
        </mxCell>
        <mxCell id="n-K4rKe29Tg8tYZz-lkn-69" value="Estado 4" style="rounded=1;whiteSpace=wrap;html=1;" parent="1" vertex="1">
          <mxGeometry x="250" y="590" width="100" height="50" as="geometry" />
        </mxCell>
        <mxCell id="n-K4rKe29Tg8tYZz-lkn-70" value="Monitorea humedad del suelo" style="rounded=1;whiteSpace=wrap;html=1;" parent="1" vertex="1">
          <mxGeometry x="480" y="630" width="100" height="50" as="geometry" />
        </mxCell>
        <mxCell id="n-K4rKe29Tg8tYZz-lkn-71" value="" style="endArrow=none;dashed=1;html=1;rounded=0;" parent="1" edge="1">
          <mxGeometry width="50" height="50" relative="1" as="geometry">
            <mxPoint x="310" y="660" as="sourcePoint" />
            <mxPoint x="470" y="660" as="targetPoint" />
          </mxGeometry>
        </mxCell>
        <mxCell id="n-K4rKe29Tg8tYZz-lkn-72" value="" style="endArrow=none;dashed=1;html=1;rounded=0;" parent="1" edge="1">
          <mxGeometry width="50" height="50" relative="1" as="geometry">
            <mxPoint x="590" y="654.5" as="sourcePoint" />
            <mxPoint x="720" y="655" as="targetPoint" />
          </mxGeometry>
        </mxCell>
        <mxCell id="n-K4rKe29Tg8tYZz-lkn-73" value="" style="endArrow=open;endFill=1;endSize=12;html=1;rounded=0;exitX=0.5;exitY=1;exitDx=0;exitDy=0;" parent="1" source="n-K4rKe29Tg8tYZz-lkn-69" edge="1">
          <mxGeometry width="160" relative="1" as="geometry">
            <mxPoint x="430" y="780" as="sourcePoint" />
            <mxPoint x="300" y="690" as="targetPoint" />
          </mxGeometry>
        </mxCell>
        <mxCell id="n-K4rKe29Tg8tYZz-lkn-74" value="" style="endArrow=none;dashed=1;html=1;rounded=0;" parent="1" edge="1">
          <mxGeometry width="50" height="50" relative="1" as="geometry">
            <mxPoint x="160" y="660" as="sourcePoint" />
            <mxPoint x="290" y="660" as="targetPoint" />
          </mxGeometry>
        </mxCell>
        <mxCell id="n-K4rKe29Tg8tYZz-lkn-75" value="" style="endArrow=open;endFill=1;endSize=12;html=1;rounded=0;exitX=0.5;exitY=1;exitDx=0;exitDy=0;" parent="1" edge="1">
          <mxGeometry width="160" relative="1" as="geometry">
            <mxPoint x="529.5" y="680" as="sourcePoint" />
            <mxPoint x="529.5" y="730" as="targetPoint" />
          </mxGeometry>
        </mxCell>
        <mxCell id="CKGxSvTKyoznKoUGX3KP-2" value="Se crea una alerta" style="text;html=1;align=center;verticalAlign=middle;resizable=0;points=[];autosize=1;strokeColor=none;fillColor=none;" vertex="1" parent="1">
          <mxGeometry x="550" y="380" width="120" height="30" as="geometry" />
        </mxCell>
        <mxCell id="CKGxSvTKyoznKoUGX3KP-3" value="Se activa sistema de riego" style="text;html=1;align=center;verticalAlign=middle;resizable=0;points=[];autosize=1;strokeColor=none;fillColor=none;" vertex="1" parent="1">
          <mxGeometry x="530" y="490" width="160" height="30" as="geometry" />
        </mxCell>
        <mxCell id="CKGxSvTKyoznKoUGX3KP-4" value="Se elimina la alerta" style="text;html=1;align=center;verticalAlign=middle;resizable=0;points=[];autosize=1;strokeColor=none;fillColor=none;" vertex="1" parent="1">
          <mxGeometry x="555" y="590" width="130" height="30" as="geometry" />
        </mxCell>
      </root>
    </mxGraphModel>
  </diagram>
</mxfile>
